<?xml version="1.0" encoding="utf-8"?>
<!-- Generator: Adobe Illustrator 18.0.0, SVG Export Plug-In . SVG Version: 6.00 Build 0)  -->
<!DOCTYPE svg PUBLIC "-//W3C//DTD SVG 1.1//EN" "http://www.w3.org/Graphics/SVG/1.1/DTD/svg11.dtd">
<svg version="1.1" id="Layer_1" xmlns="http://www.w3.org/2000/svg" xmlns:xlink="http://www.w3.org/1999/xlink" x="0px" y="0px"
	 viewBox="0 0 48 48" enable-background="new 0 0 48 48" xml:space="preserve">
<path fill="#F5EFEC" d="M4.9,23.7c0-3.1,0-6.1,0-9.2c0-1.5,0.8-2.5,1.9-3.2C11.9,8.1,17,5.1,22.2,2.1c1.3-0.8,2.5-0.8,3.9,0
	c5.1,2.9,10.2,6,15.3,8.9c0.4,0.2,0.8,0.5,1.1,0.9c0.4,0.5,0.7,1.1,0.7,1.7c0,1.9,0.1,3.7,0,5.6c-0.1,1-0.5,1.7-1.4,2.2
	c-3.3,1.9-6.5,3.9-9.8,5.8c-0.6,0.3-0.9,0.9-1.1,1.5c-0.2,0.4-0.3,0.8-0.3,1.3c0,1.5-0.1,2.9,0,4.4c0,0.9,0.4,1,1.2,0.6
	c3.4-2,6.7-3.9,10.1-5.9c0.1-0.1,0.2-0.1,0.4-0.2c0.5-0.2,0.9-0.1,1,0.5c0.1,0.2,0.1,0.5,0.1,0.8c0,1.4,0,2.8,0,4.1
	c0,1.1-0.4,1.8-1.4,2.4c-2.8,1.7-5.6,3.3-8.5,5c-2.5,1.5-4.9,2.9-7.4,4.4c-1.3,0.8-2.5,0.8-3.7,0c-0.8-0.6-1.7-1.1-2.6-1.7
	c-1.2-0.7-1.8-1.9-1.9-3.3c-0.1-1.2-0.1-2.4,0-3.5c0-0.9-0.3-1.6-1-2.1c-1.5-0.9-3-1.9-4.5-2.8c-0.5-0.3-0.9-0.1-0.9,0.5
	c-0.1,0.8-0.1,1.6-0.1,2.4c0,0.6,0,1.2,0,1.9c0,0.2,0,0.4-0.1,0.6c-0.2,0.8-0.5,1-1.2,0.6c-1-0.6-2.1-1-3-1.8
	c-0.7-0.6-1.4-1.3-1.8-2.2c-0.2-0.5-0.3-1-0.3-1.5C4.9,30,4.9,26.8,4.9,23.7C4.9,23.7,4.9,23.7,4.9,23.7z"/>
</svg>
